<?xml version="1.0" standalone="no"?>
<!DOCTYPE svg PUBLIC "-//W3C//DTD SVG 20010904//EN"
 "http://www.w3.org/TR/2001/REC-SVG-20010904/DTD/svg10.dtd">
<svg version="1.0" xmlns="http://www.w3.org/2000/svg"
 width="874.000000pt" height="227.000000pt" viewBox="0 0 874.000000 227.000000"
 preserveAspectRatio="xMidYMid meet">
<metadata>
Created by potrace 1.16, written by Peter Selinger 2001-2019
</metadata>
<g transform="translate(0.000000,227.000000) scale(0.100000,-0.100000)"
fill="#000000" stroke="none">
<path d="M7275 2165 c-66 -8 -177 -23 -248 -34 -70 -12 -130 -21 -132 -21 -3
0 -5 -434 -5 -964 l0 -964 138 -21 c237 -37 282 -41 492 -47 161 -5 228 -3
309 10 226 35 407 124 560 276 123 123 201 264 253 458 26 99 36 353 18 473
-34 237 -158 471 -323 609 -154 130 -312 199 -522 230 -96 13 -394 11 -540 -5z
m511 -250 c161 -28 278 -89 394 -205 114 -114 176 -234 206 -400 51 -284 -34
-573 -220 -748 -180 -168 -363 -217 -729 -193 -105 6 -211 14 -234 18 l-43 6
0 753 0 753 43 6 c166 25 466 30 583 10z"/>
<path d="M40 2123 c0 -5 149 -452 331 -995 l332 -988 76 0 77 0 269 750 c148
412 272 746 276 742 4 -4 125 -341 270 -749 l263 -743 76 0 77 0 346 989 c191
543 347 991 347 995 0 3 -65 6 -145 6 l-144 0 -31 -97 c-17 -54 -126 -386
-242 -738 -161 -488 -213 -635 -220 -620 -5 11 -120 342 -256 735 l-247 715
-89 0 -89 0 -261 -733 c-143 -402 -263 -729 -266 -725 -4 5 -109 335 -235 736
l-229 727 -143 0 c-79 0 -143 -3 -143 -7z"/>
<path d="M3565 2119 c-4 -6 -213 -452 -466 -992 l-458 -982 156 -3 c86 -1 160
1 164 5 3 5 53 113 109 240 l103 233 462 0 c358 0 465 -3 472 -12 6 -7 54
-115 109 -240 l99 -228 158 0 c147 0 159 1 152 18 -3 9 -212 457 -463 995
l-456 977 -68 0 c-37 0 -70 -5 -73 -11z m265 -867 c89 -205 160 -375 158 -378
-3 -2 -162 -3 -355 -2 l-349 3 158 355 c86 195 167 377 179 404 l21 50 13 -30
c6 -16 85 -197 175 -402z"/>
<path d="M5000 1135 l0 -995 680 0 680 0 0 125 0 125 -550 0 -550 0 0 870 0
870 -130 0 -130 0 0 -995z"/>
</g>
</svg>
